<?xml version="1.0" encoding="utf-8"?>
<!-- Generator: Adobe Illustrator 23.0.5, SVG Export Plug-In . SVG Version: 6.00 Build 0)  -->
<svg version="1.1" id="Слой_1" xmlns="http://www.w3.org/2000/svg" xmlns:xlink="http://www.w3.org/1999/xlink" x="0px" y="0px"
	 viewBox="0 0 1000 1000" style="enable-background:new 0 0 1000 1000;" xml:space="preserve">
<style type="text/css">
	.st0{fill:#FE1846;}
	.st1{fill:#03ADC1;}
	.st2{fill:#293138;}
</style>
<g>
	<path class="st0" d="M845.9,543.3c0-191-154.9-345.9-345.9-345.9S154.1,352.3,154.1,543.3c0,15.9,12.9,28.8,28.8,28.8
		s28.8-12.9,28.8-28.8c0-159.2,129-288.2,288.2-288.2s288.2,129,288.2,288.2c0,15.9,12.9,28.8,28.8,28.8
		C833,572.1,845.9,559.2,845.9,543.3L845.9,543.3z"/>
	<path class="st1" d="M455.5,555.7L331.4,449.3c-12.1-10.4-30.3-9-40.6,3.1c-10.4,12.1-9,30.3,3.1,40.6l125.3,107.4
		c-3.1,8.9-4.8,18.4-4.8,28.4c0,47.3,38.3,85.6,85.6,85.6s85.6-38.3,85.6-85.6s-38.3-85.6-85.6-85.6
		C483.7,543.3,468.5,547.8,455.5,555.7z"/>
	<path class="st2" d="M785.8,941.3C913,849.8,990,703,990,543.3c0-270.6-219.4-490-490-490S10,272.7,10,543.3
		C10,699.8,83.9,844.1,206.9,936c12.8,9.5,30.8,6.9,40.3-5.8c9.5-12.8,6.9-30.8-5.8-40.3C132.8,808.7,67.6,681.4,67.6,543.3
		c0-238.8,193.6-432.4,432.4-432.4s432.4,193.6,432.4,432.4c0,140.9-67.9,270.5-180.2,351.2c-12.9,9.3-15.9,27.3-6.6,40.2
		C754.9,947.7,772.9,950.6,785.8,941.3L785.8,941.3z"/>
</g>
</svg>
