<?xml version="1.0" encoding="utf-8"?>
<!-- Generator: Adobe Illustrator 23.0.5, SVG Export Plug-In . SVG Version: 6.00 Build 0)  -->
<svg version="1.1" id="Слой_1" xmlns="http://www.w3.org/2000/svg" xmlns:xlink="http://www.w3.org/1999/xlink" x="0px" y="0px"
	 viewBox="0 0 1472.8 1007.9" style="enable-background:new 0 0 1472.8 1007.9;" xml:space="preserve">
<style type="text/css">
	.st0{fill:#F60607;}
	.st1{enable-background:new    ;}
</style>
<g>
	<path d="M419.9,550.1c59.2,44.7,98,115,98,194.9c0,135.3-109.7,245-245,245s-245-109.7-245-245c0-79.9,38.8-150.1,98-194.9V157
		c0-81.2,65.9-147,147-147c81.2,0,147,65.8,147,147L419.9,550.1L419.9,550.1z M370.9,157c0-54.1-43.9-98-98-98s-98,43.9-98,98v419.7
		c-58.3,33.8-98,96-98,168.3c0,108.2,87.8,196,196,196s196-87.8,196-196c0-72.3-39.7-134.5-98-168.3V157z"/>
	<path class="st0" d="M125.9,745c0,81.2,65.8,147,147,147s147-65.8,147-147s-65.8-147-147-147S125.9,663.8,125.9,745z"/>
	<rect x="225.2" y="483" class="st0" width="95.3" height="164"/>
</g>
<g class="st1">
	<path d="M918.7,933.4c0,1.4-0.4,2.7-1.2,3.8c-0.8,1.1-2.2,2-4.2,2.7c-2,0.7-4.7,1.3-8.1,1.7s-7.6,0.6-12.8,0.6
		c-5,0-9.2-0.2-12.6-0.6s-6-1-8-1.7c-2-0.7-3.4-1.6-4.2-2.7c-0.8-1.1-1.3-2.4-1.3-3.8V712.4H866l-78.7,220.9
		c-0.6,1.8-1.5,3.3-2.7,4.5c-1.3,1.2-3,2.1-5.1,2.8c-2.2,0.7-4.9,1.2-8.3,1.4c-3.4,0.2-7.4,0.3-12.2,0.3c-4.8,0-8.8-0.2-12.2-0.5
		c-3.4-0.4-6.1-0.9-8.3-1.7c-2.2-0.8-3.9-1.7-5.1-2.8c-1.3-1.1-2.1-2.4-2.5-4l-76-220.9h-0.4v221.1c0,1.4-0.4,2.7-1.2,3.8
		c-0.8,1.1-2.2,2-4.3,2.7c-2.1,0.7-4.8,1.3-8.1,1.7c-3.3,0.4-7.5,0.6-12.7,0.6c-5,0-9.2-0.2-12.6-0.6s-6.1-1-8.1-1.7
		c-2-0.7-3.4-1.6-4.2-2.7c-0.8-1.1-1.2-2.4-1.2-3.8V691.4c0-7.1,1.9-12.6,5.7-16.4s8.8-5.7,15.1-5.7H659c6.4,0,12,0.5,16.6,1.6
		c4.6,1.1,8.6,2.8,12,5.3c3.4,2.5,6.2,5.7,8.4,9.7c2.2,4,4.2,8.9,5.9,14.8l58.8,161.9h0.8L822.4,701c1.8-5.9,3.8-10.8,6-14.9
		c2.2-4.1,4.7-7.3,7.6-9.9c2.9-2.5,6.3-4.3,10.2-5.4c3.9-1,8.5-1.6,13.6-1.6h37.2c3.8,0,7,0.5,9.8,1.5c2.7,1,5,2.4,6.7,4.3
		c1.7,1.9,3.1,4.2,4,6.9c0.9,2.7,1.4,5.8,1.4,9.3V933.4z"/>
	<path d="M1033.4,933.4c0,1.4-0.5,2.7-1.4,3.8c-0.9,1.1-2.4,2-4.5,2.7c-2.1,0.7-4.9,1.3-8.4,1.7c-3.5,0.4-8,0.6-13.4,0.6
		c-5.3,0-9.8-0.2-13.3-0.6c-3.6-0.4-6.4-1-8.5-1.7c-2.1-0.7-3.6-1.6-4.5-2.7c-0.9-1.1-1.4-2.4-1.4-3.8V676.9c0-1.4,0.5-2.7,1.4-3.8
		c0.9-1.1,2.4-2,4.6-2.7c2.2-0.7,5-1.3,8.5-1.7c3.5-0.4,7.9-0.6,13.2-0.6c5.5,0,9.9,0.2,13.4,0.6c3.5,0.4,6.3,1,8.4,1.7
		c2.1,0.7,3.6,1.6,4.5,2.7c0.9,1.1,1.4,2.4,1.4,3.8V933.4z"/>
	<path d="M1316.6,921.7c0,3.2-0.6,6.1-1.7,8.6c-1.1,2.5-2.6,4.6-4.5,6.3c-1.9,1.7-4.1,2.9-6.7,3.7c-2.6,0.8-5.2,1.2-7.9,1.2h-23.5
		c-4.9,0-9.1-0.5-12.7-1.5c-3.6-1-6.9-2.8-9.9-5.4c-3-2.6-5.9-6.1-8.7-10.5c-2.8-4.4-6-10.1-9.4-17.1L1164,780
		c-3.9-7.6-7.9-15.7-12-24.5c-4.1-8.7-7.7-17.3-10.9-25.5h-0.4c0.6,10.1,1,20.1,1.3,30.1c0.3,10,0.4,20.3,0.4,31v142.1
		c0,1.4-0.4,2.7-1.2,3.8c-0.8,1.1-2.1,2.1-4,2.8c-1.9,0.8-4.4,1.4-7.7,1.8c-3.2,0.4-7.3,0.6-12.4,0.6c-4.9,0-9-0.2-12.2-0.6
		c-3.2-0.4-5.7-1-7.6-1.8c-1.8-0.8-3.1-1.7-3.8-2.8c-0.7-1.1-1-2.4-1-3.8V689c0-6.6,1.9-11.5,5.8-14.8c3.8-3.3,8.6-4.9,14.2-4.9
		h29.6c5.3,0,9.8,0.5,13.4,1.4c3.6,0.9,6.9,2.4,9.8,4.5c2.9,2.1,5.6,5,8.1,8.7c2.5,3.7,5.1,8.3,7.8,13.8l52.9,99.3
		c3.1,6,6.1,11.9,9.1,17.7c3,5.8,5.9,11.6,8.7,17.4c2.8,5.8,5.5,11.5,8.2,17.1c2.7,5.6,5.2,11.2,7.8,16.8h0.2
		c-0.4-9.8-0.7-20-0.9-30.7c-0.2-10.6-0.3-20.8-0.3-30.4V677.5c0-1.4,0.4-2.7,1.3-3.8c0.8-1.1,2.2-2.1,4.2-2.9
		c2-0.8,4.5-1.4,7.8-1.8c3.2-0.3,7.3-0.5,12.4-0.5c4.8,0,8.7,0.2,12,0.5c3.2,0.4,5.7,0.9,7.5,1.8c1.7,0.8,3,1.8,3.7,2.9
		c0.7,1.1,1,2.4,1,3.8V921.7z"/>
</g>
</svg>
