<?xml version="1.0" encoding="utf-8"?>
<!-- Generator: Adobe Illustrator 23.0.5, SVG Export Plug-In . SVG Version: 6.00 Build 0)  -->
<svg version="1.1" id="Слой_1" xmlns="http://www.w3.org/2000/svg" xmlns:xlink="http://www.w3.org/1999/xlink" x="0px" y="0px"
	 viewBox="0 0 1000 1000" style="enable-background:new 0 0 1000 1000;" xml:space="preserve">
<style type="text/css">
	.st0{fill:#F60607;}
</style>
<g>
	<path d="M647,550.1c59.2,44.7,98,115,98,194.9c0,135.3-109.7,245-245,245S255,880.3,255,745c0-79.9,38.8-150.1,98-194.9V157
		c0-81.2,65.9-147,147-147c81.2,0,147,65.8,147,147V550.1z M598,157c0-54.1-43.9-98-98-98s-98,43.9-98,98v419.7
		c-58.3,33.8-98,96-98,168.3c0,108.2,87.8,196,196,196s196-87.8,196-196c0-72.3-39.7-134.5-98-168.3V157z"/>
	<path class="st0" d="M353,745c0,81.2,65.8,147,147,147s147-65.8,147-147s-65.8-147-147-147S353,663.8,353,745z"/>
	<rect x="452.3" y="353" class="st0" width="95.3" height="294"/>
</g>
</svg>
