<?xml version="1.0" encoding="utf-8"?>
<!-- Generator: Adobe Illustrator 23.0.5, SVG Export Plug-In . SVG Version: 6.00 Build 0)  -->
<svg version="1.1" id="Слой_1" xmlns="http://www.w3.org/2000/svg" xmlns:xlink="http://www.w3.org/1999/xlink" x="0px" y="0px"
	 viewBox="0 0 1000 1000" style="enable-background:new 0 0 1000 1000;" xml:space="preserve">
<style type="text/css">
	.st0{fill:#157EFB;}
	.st1{fill:#2295F2;}
</style>
<g>
	<g>
		<g>
			<path class="st0" d="M663.2,282.2c0-79.9-65.3-145.2-145.2-145.2s-145.2,65.3-145.2,145.2h72.5c0-39.9,32.6-72.5,72.5-72.5
				s72.5,32.6,72.5,72.5s-32.6,72.5-72.5,72.5H82.5v72.5H518C597.9,427.6,663.2,362.1,663.2,282.2z"/>
			<path class="st1" d="M844.6,282.2c-79.9,0-145.2,65.3-145.2,145.2h72.7c0-39.9,32.6-72.5,72.5-72.5s72.5,32.6,72.5,72.5
				s-32.5,72.7-72.5,72.7H10v72.5h834.8c79.9,0,145.2-65.3,145.2-145.2S924.5,282.2,844.6,282.2z"/>
			<path class="st0" d="M735.9,645.3H227.7v72.5h508.2c21.8,0,36.2,14.4,36.2,36.2s-14.4,36.3-36.2,36.3s-36.2-14.4-36.2-36.3h-72.5
				c0,58.1,47.3,108.9,108.9,108.9c61.7,0,108.9-47.3,108.9-108.9C845,692.3,797.6,645.3,735.9,645.3z"/>
		</g>
	</g>
</g>
</svg>
