<?xml version="1.0" encoding="utf-8"?>
<!-- Generator: Adobe Illustrator 23.0.5, SVG Export Plug-In . SVG Version: 6.00 Build 0)  -->
<svg version="1.1" id="Слой_1" xmlns="http://www.w3.org/2000/svg" xmlns:xlink="http://www.w3.org/1999/xlink" x="0px" y="0px"
	 viewBox="0 0 58 58" style="enable-background:new 0 0 58 58;" xml:space="preserve">
<style type="text/css">
	.st0{fill:#FFFFFF;}
	.st1{fill:#EFEFEF;}
</style>
<rect x="0" class="st0" width="58" height="58"/>
<g>
	<rect x="-29" y="43.1" transform="matrix(0.7071 -0.7071 0.7071 0.7071 -20.5214 46.6074)" class="st1" width="150" height="10"/>
</g>
<g>
	<rect x="-6" y="49.1" transform="matrix(0.7071 -0.7071 0.7071 0.7071 -18.0277 64.6281)" class="st1" width="150" height="10"/>
</g>
<g>
	<rect x="22" y="50.1" transform="matrix(0.7071 -0.7071 0.7071 0.7071 -10.5244 84.7159)" class="st1" width="150" height="10"/>
</g>
<g>
	<rect x="-57" y="42.1" transform="matrix(0.7071 -0.7071 0.7071 0.7071 -28.0152 26.5156)" class="st1" width="150" height="10"/>
</g>
<g>
	<rect x="-85" y="41.1" transform="matrix(0.7071 -0.7071 0.7071 0.7071 -35.5089 6.4238)" class="st1" width="150" height="10"/>
</g>
<g>
	
		<rect x="-112" y="39.1" transform="matrix(0.7071 -0.7071 0.7071 0.7071 -42.0027 -13.2537)" class="st1" width="150" height="10"/>
</g>
</svg>
